<svg width="100" height="100" viewBox="0 0 100 100" fill="none" xmlns="http://www.w3.org/2000/svg">
<g clip-path="url(#clip0_18_31)">
<path d="M43.2995 81.6289C38.7475 81.6289 34.4557 80.1778 30.8894 77.4315C30.2264 76.9211 29.5843 76.3602 28.9828 75.7674C24.8194 71.6523 22.725 66.1739 23.084 60.3388C23.3562 55.9306 25.1333 51.6805 28.0871 48.371C32.0046 43.9837 37.4062 41.5678 43.2984 41.5678C44.3061 41.5678 45.3302 41.6435 46.34 41.7928C46.8779 41.8729 47.2774 42.335 47.2774 42.8784V53.0207C47.2774 53.3731 47.1084 53.7034 46.823 53.9109C46.5365 54.1173 46.1699 54.1743 45.8362 54.0635C45.025 53.7967 44.182 53.6606 43.3302 53.6606C41.1766 53.6606 39.158 54.5047 37.6488 56.0371C36.1461 57.5628 35.336 59.5814 35.3678 61.7207C35.4096 64.4813 36.8618 66.9829 39.2535 68.4131C40.3545 69.0739 41.6102 69.4581 42.8857 69.5295C43.8889 69.58 44.8834 69.4515 45.8362 69.1376C49.1017 68.0597 51.2948 65.0313 51.2948 61.6022L51.3069 19.3578C51.3069 18.7519 51.7976 18.2601 52.4046 18.2601H62.3932C62.9958 18.2601 63.4843 18.7453 63.4909 19.3468C63.4997 20.2568 63.593 21.1601 63.7664 22.0339C64.4535 25.4838 66.3865 28.5561 69.2108 30.6856C71.7068 32.5681 74.6826 33.5669 77.8197 33.5768C77.9262 33.5702 78.0315 33.5768 78.138 33.6021C78.6363 33.7162 78.9909 34.1597 78.9909 34.6723V44.6171C78.9909 45.223 78.5002 45.7147 77.8932 45.7147C77.891 45.7147 77.8877 45.7147 77.8845 45.7147C74.3215 45.7147 70.8573 45.0155 67.5884 43.6368C66.1648 43.0364 64.7993 42.3131 63.5074 41.4767L63.5535 61.6768C63.5304 67.0049 61.4229 72.0069 57.6184 75.7674C54.5296 78.8211 50.6297 80.7717 46.3422 81.4072C45.3357 81.5543 44.3137 81.6289 43.2995 81.6289ZM43.2995 43.7642C38.0406 43.7642 33.2197 45.92 29.7259 49.8342C27.0981 52.777 25.5175 56.5574 25.276 60.4749C24.9555 65.6668 26.8204 70.5437 30.5261 74.2066C31.0628 74.7356 31.6358 75.2362 32.2285 75.6928C35.4085 78.1395 39.2371 79.4336 43.2995 79.4336C44.2073 79.4336 45.1216 79.3656 46.0195 79.2338C49.8415 78.6674 53.3178 76.9288 56.0729 74.2055C59.4603 70.8576 61.3362 66.4077 61.3559 61.6735L61.3044 39.3549C61.3033 38.9356 61.5415 38.5536 61.9169 38.3681C62.2933 38.1837 62.7423 38.2265 63.0727 38.4833C64.7159 39.75 66.5215 40.8027 68.4402 41.6128C71.1031 42.7357 73.9076 43.3679 76.7934 43.4942V35.7381C73.5542 35.5339 70.4939 34.4034 67.887 32.4375C64.6314 29.9831 62.4031 26.4399 61.6117 22.462C61.48 21.8045 61.3889 21.1327 61.3395 20.4543H53.5L53.4879 61.6011C53.4879 65.9785 50.6889 69.8456 46.5233 71.2199C45.3104 71.6216 44.0492 71.795 42.7638 71.7193C41.1338 71.6304 39.5302 71.1386 38.1241 70.2956C35.0759 68.4735 33.223 65.2804 33.1703 61.7526C33.1297 59.0205 34.1637 56.4432 36.0824 54.4971C38.0077 52.5421 40.5817 51.4653 43.328 51.4653C43.9175 51.4653 44.5025 51.5158 45.081 51.6179V43.8509C44.4861 43.7927 43.89 43.7642 43.2995 43.7642Z" fill="white"/>
<path d="M86.5057 99.3385H13.382C6.30652 99.3385 0.549316 93.5813 0.549316 86.5058V13.3821C0.549316 6.30665 6.30652 0.549438 13.382 0.549438H86.5057C93.5812 0.549438 99.3384 6.30665 99.3384 13.3821V86.5058C99.3384 93.5813 93.5812 99.3385 86.5057 99.3385ZM13.382 2.74475C7.51614 2.74475 2.74463 7.51626 2.74463 13.3821V86.5058C2.74463 92.3706 7.51614 97.1432 13.382 97.1432H86.5057C92.3705 97.1432 97.1431 92.3706 97.1431 86.5058V13.3821C97.1431 7.51626 92.3705 2.74475 86.5057 2.74475H13.382Z" fill="white"/>
</g>
<rect x="2" y="2" width="96" height="96" rx="18" stroke="white" stroke-width="4"/>
<defs>
<clipPath id="clip0_18_31">
<rect width="100" height="100" rx="20" fill="white"/>
</clipPath>
</defs>
</svg>
