<svg width="100" height="100" viewBox="0 0 100 100" fill="none" xmlns="http://www.w3.org/2000/svg">
<path d="M95.8332 12.5C91.8431 15.3145 87.4253 17.4672 82.7498 18.875C80.2404 15.9897 76.9054 13.9446 73.1958 13.0164C69.4862 12.0882 65.5811 12.3217 62.0085 13.6853C58.4359 15.0488 55.3684 17.4767 53.2206 20.6405C51.0729 23.8043 49.9486 27.5514 49.9998 31.375V35.5417C42.6775 35.7316 35.4218 34.1076 28.879 30.8144C22.3363 27.5212 16.7095 22.661 12.4998 16.6667C12.4998 16.6667 -4.16683 54.1667 33.3332 70.8334C24.752 76.6582 14.5297 79.5789 4.1665 79.1667C41.6665 100 87.4998 79.1667 87.4998 31.25C87.496 30.0894 87.3844 28.9317 87.1665 27.7917C91.419 23.5979 94.42 18.303 95.8332 12.5Z" stroke="#F3F3F3" strokeWidth="4" strokeLinecap="round" strokeLinejoin="round"/>
</svg>
