<svg width="100" height="100" viewBox="0 0 100 100" fill="none" xmlns="http://www.w3.org/2000/svg">
<path d="M93.9164 26.75C93.4215 24.7726 92.4135 22.9607 90.9942 21.4975C89.5749 20.0344 87.7946 18.9716 85.8331 18.4167C78.6664 16.6667 49.9998 16.6667 49.9998 16.6667C49.9998 16.6667 21.3331 16.6667 14.1664 18.5834C12.205 19.1383 10.4247 20.201 9.00539 21.6642C7.58609 23.1274 6.57806 24.9392 6.08311 26.9167C4.77151 34.1898 4.12993 41.568 4.16644 48.9584C4.11969 56.4044 4.76131 63.8388 6.08311 71.1667C6.62877 73.0827 7.65939 74.8256 9.07538 76.227C10.4914 77.6284 12.2449 78.6409 14.1664 79.1667C21.3331 81.0834 49.9998 81.0834 49.9998 81.0834C49.9998 81.0834 78.6664 81.0834 85.8331 79.1667C87.7946 78.6118 89.5749 77.549 90.9942 76.0858C92.4135 74.6226 93.4215 72.8108 93.9164 70.8334C95.2179 63.615 95.8595 56.2931 95.8331 48.9584C95.8799 41.5123 95.2382 34.0779 93.9164 26.75Z" stroke="#F3F3F3" stroke-width="4" stroke-linecap="round" stroke-linejoin="round"/>
<path d="M40.6248 62.5834L64.5831 48.9584L40.6248 35.3334V62.5834Z" stroke="#F3F3F3" stroke-width="4" stroke-linecap="round" stroke-linejoin="round"/>
</svg>
